<svg version="1.2" baseProfile="tiny-ps" xmlns="http://www.w3.org/2000/svg" viewBox="0 0 1600 1600" width="400" height="400">
	<title>munnar-ai</title>
	<defs>
		<linearGradient id="grd1" gradientUnits="userSpaceOnUse"  x1="596.28" y1="729.721" x2="892.743" y2="438.618">
			<stop offset="0" stop-color="#ffe1c0"  />
			<stop offset="0.374" stop-color="#f7b57d"  />
		</linearGradient>
		<linearGradient id="grd2" gradientUnits="userSpaceOnUse"  x1="1089.566" y1="462.608" x2="1151.836" y2="485.28">
			<stop offset="0.128" stop-color="#ffe1c0"  />
			<stop offset="0.984" stop-color="#f7b57d"  />
		</linearGradient>
		<linearGradient id="grd3" gradientUnits="userSpaceOnUse"  x1="705.668" y1="211.438" x2="1253.635" y2="117.587">
			<stop offset="0" stop-color="#ffe1c0"  />
			<stop offset="0.876" stop-color="#f7b780"  />
			<stop offset="1" stop-color="#f7b57d"  />
		</linearGradient>
		<linearGradient id="grd4" gradientUnits="userSpaceOnUse"  x1="572.693" y1="-5.464" x2="1365.261" y2="151.909">
			<stop offset="0.089" stop-color="#b8c2c3"  />
			<stop offset="0.904" stop-color="#a1adaf"  />
		</linearGradient>
		<linearGradient id="grd5" gradientUnits="userSpaceOnUse"  x1="818.727" y1="495.388" x2="883.99" y2="433.267">
			<stop offset="0" stop-color="#ffe1c0"  />
			<stop offset="1" stop-color="#f7b57d"  />
		</linearGradient>
		<linearGradient id="grd6" gradientUnits="userSpaceOnUse"  x1="732.964" y1="1536.124" x2="533.003" y2="1039.374">
			<stop offset="0.049" stop-color="#a1adaf"  />
			<stop offset="0.937" stop-color="#ffffff"  />
		</linearGradient>
		<linearGradient id="grd7" gradientUnits="userSpaceOnUse"  x1="845.78" y1="1526.652" x2="595.099" y2="1348.866">
			<stop offset="0" stop-color="#2245a4"  />
			<stop offset="0.18" stop-color="#274ea9"  />
			<stop offset="0.977" stop-color="#2c5cb1"  />
		</linearGradient>
		<linearGradient id="grd8" gradientUnits="userSpaceOnUse"  x1="888.515" y1="922.431" x2="1138.378" y2="1287.464">
			<stop offset="0.184" stop-color="#2c5cb1"  />
			<stop offset="0.605" stop-color="#2245a4"  />
		</linearGradient>
		<linearGradient id="grd9" gradientUnits="userSpaceOnUse"  x1="1102.816" y1="1061.439" x2="1289.551" y2="1232.361">
			<stop offset="0" stop-color="#1f1d1e"  />
			<stop offset="0.927" stop-color="#0c0d0d"  />
		</linearGradient>
		<linearGradient id="grd10" gradientUnits="userSpaceOnUse"  x1="449.729" y1="825.2" x2="1086.413" y2="1169.768">
			<stop offset="0.058" stop-color="#1f1d1e"  />
			<stop offset="0.688" stop-color="#0c0d0d"  />
		</linearGradient>
		<linearGradient id="grd11" gradientUnits="userSpaceOnUse"  x1="524.349" y1="968.388" x2="697.345" y2="798.149">
			<stop offset="0.441" stop-color="#ffffff"  />
			<stop offset="0.802" stop-color="#a1adaf"  />
		</linearGradient>
		<linearGradient id="grd12" gradientUnits="userSpaceOnUse"  x1="906.459" y1="1010.313" x2="1004.3" y2="934.689">
			<stop offset="0.335" stop-color="#ffffff"  />
			<stop offset="0.864" stop-color="#a1adaf"  />
		</linearGradient>
	</defs>
	<style>
		tspan { white-space:pre }
		.shp0 { fill: url(#grd1) } 
		.shp1 { fill: #ffe1c1 } 
		.shp2 { fill: url(#grd2);stroke: #f6b67e;stroke-width: 3.967 } 
		.shp3 { fill: url(#grd3) } 
		.shp4 { fill: url(#grd4) } 
		.shp5 { opacity: 0.18;fill: #e8ecec } 
		.shp6 { fill: #585d5a } 
		.shp7 { opacity: 0.169;fill: #e8ecec } 
		.shp8 { fill: #0d0e0d } 
		.shp9 { fill: none;stroke: #0c0d0d;stroke-width: 11.902 } 
		.shp10 { fill: #0c0d0d;stroke: #0c0d0d;stroke-width: 3.967 } 
		.shp11 { fill: none;stroke: #b34f1f;stroke-width: 7.935 } 
		.shp12 { fill: #f7b57d } 
		.shp13 { fill: url(#grd5) } 
		.shp14 { fill: #1f1d1e } 
		.shp15 { fill: url(#grd6) } 
		.shp16 { fill: url(#grd7) } 
		.shp17 { fill: url(#grd8) } 
		.shp18 { fill: url(#grd9) } 
		.shp19 { fill: url(#grd10) } 
		.shp20 { fill: #f4f6f7 } 
		.shp21 { fill: url(#grd11) } 
		.shp22 { fill: url(#grd12) } 
		.shp23 { fill: #121010 } 
	</style>
	<g id="colar">
		<g id="face">
			<path id="neck 2 " class="shp0" d="M613.14 927.76C626.85 833.3 629.52 762.07 621.14 714.08C688.55 781.5 798.25 906.05 879.37 884.34C938.79 871.39 984.12 850.25 1015.35 820.92C1008.59 904.66 1012.81 962.83 1027.99 995.42C1035.35 1020.98 993.81 1039.18 903.37 1050.02C814.24 1041.64 747.97 1025.64 704.55 1002.03C661.13 978.41 630.66 953.66 613.14 927.76Z" />
			<g id="face">
				<path id="&lt;Path&gt;" class="shp1" d="M596.57 528.03C643.25 467.87 635.54 432.82 573.45 422.89C528.05 474.2 504.37 563.71 525.3 604.96C538.98 633.47 581.62 644.75 653.22 638.79L596.57 528.03Z" />
				<path id="&lt;Path&gt;" class="shp2" d="M1084.82 481.02C1114.92 477.32 1136.31 492.58 1148.98 526.81C1168 578.16 1138.29 636.45 1084.82 685.03C1049.17 717.41 1049.17 649.41 1084.82 481.02Z" />
				<path id="&lt;Path&gt;" class="shp3" d="M986.78 875.2C1058.39 852.34 1093.81 805.11 1093.05 733.51C1091.91 626.1 1083.91 576.97 1105.62 437.57C1105.62 300.45 1053.06 258.17 920.51 218.18C787.96 178.19 649.7 203.32 629.14 298.16C608.57 393 582.29 488.98 585.72 546.12C589.15 603.25 598.29 692.37 632.57 740.36C666.84 788.35 768.54 899.19 839.38 906.05C886.61 910.62 935.74 900.33 986.78 875.2Z" />
				<path id="hair" class="shp4" d="M999.35 203.32C1035.92 95.92 1128.47 287.88 1144.8 371.29C1146.29 458.13 1195.89 502.7 1183.32 538.12C1174.94 561.73 1162.1 554.5 1144.8 516.41C1168.96 561.8 1168.96 583.89 1144.8 582.68C1085.36 579.7 1105.62 560.97 1095.33 552.95C1085.05 544.93 1107.9 526.69 1095.33 450.13C1082.76 373.58 1037.44 278.74 958.6 239.89C880.9 214.75 805.1 205.61 713.69 238.75C653.51 269.98 613.06 367.47 592.32 531.23C599.13 455.84 592.5 421.57 572.42 428.42C569.1 452.04 569.1 468.42 572.42 477.56C530.25 425 524.78 370.91 556.01 315.3C612 235.32 598.29 193.35 710.26 171.49C794.82 146.19 983.57 67.35 1014.42 82.21C1033.47 95.16 1028.44 135.53 999.35 203.32Z" />
				<path id="&lt;Path&gt;" class="shp5" d="M808.91 173.6C772.28 181.51 737.85 191.31 705.64 203C717.66 193.95 730.24 185.98 743.09 178.96C743.13 178.96 743.13 178.96 743.17 178.96C782.98 171.31 804.89 169.53 808.91 173.6Z" />
				<path id="&lt;Path&gt;" class="shp5" d="M986.89 220.73C925.48 229.9 972.13 176.58 870.96 185.7C642.63 149.99 600.18 393.32 598.32 404.51C609.9 304.8 652.59 243.03 705.64 203C737.85 191.31 772.28 181.51 808.91 173.6C804.89 169.53 782.98 171.31 743.17 178.96C831.25 130.87 933.06 126.43 971.34 105.04C1028.71 56.32 982.77 184.19 986.89 220.73Z" />
				<path id="&lt;Path&gt;" class="shp5" d="M743.09 178.96C730.24 185.98 717.66 193.95 705.64 203C674.49 214.27 646.13 227.88 636.8 242.16C585.99 318.73 560.77 380.25 561.14 426.73C546.86 386.14 558.88 283.9 642.28 202.76C686.55 191.02 719.13 183.56 743.09 178.96Z" />
				<path id="&lt;Path&gt;" class="shp6" d="" />
				<path id="&lt;Path&gt;" class="shp7" d="M1018.69 273.85C1039.56 309.22 1128.47 467.63 1093.19 541.6C1123.9 563.83 1112.47 579.25 1151.32 570.11C1134.94 534.69 1135.53 541.43 1134.18 480.44C1147.89 511.34 1158.18 520.33 1165.03 507.41C1145.61 463.51 1135.33 413.38 1134.18 357.01C1133.79 337.43 1114.79 298.02 1107.9 280.67C1090.94 237.95 1045.05 180.47 1030.99 185.61C1023.9 186.3 1060.28 234.18 1071.91 290.17C1081.48 336.24 1100.33 385.85 1128.47 439.01L1053.34 302.02C1045.61 287.93 1035.19 275.48 1022.67 265.39L1022.67 265.39C1018.74 266.03 1016.67 270.41 1018.69 273.85Z" />
			</g>
		</g>
		<g id="EYES EYEBROWS">
			<g id="glasses">
				<path id="&lt;Path&gt;" class="shp8" d="M585.41 506.4L688.17 436.28L673.04 478.25L585.41 520.22L585.41 506.4Z" />
				<path id="&lt;Path&gt;" class="shp8" d="M1111.92 482.51L1064.86 436.28L1073.26 465.33L1113.46 495.66L1111.92 482.51Z" />
				<path id="&lt;Path&gt;" class="shp9" d="M681.98 439.28C668.27 500.98 674.37 539.64 700.27 555.26C740.83 577.54 769.7 577.6 791.39 571.63C806.63 567.44 834.81 561.54 858.52 436.42C840.24 435.85 687.98 436.99 681.98 439.28Z" />
				<path id="&lt;Path&gt;" class="shp9" d="M897.66 436.98C900.47 490.01 913.79 529.99 937.61 556.92C979.68 588.11 993.53 578.67 1027.8 570.73C1060.24 550.17 1097.06 513.53 1061.7 439.37C1047.85 439.5 983.32 434.47 897.66 436.98Z" />
				<path id="&lt;Path&gt;" class="shp10" d="M842.05 433.54L918.22 433.54L918.22 439.01L842.05 439.01L842.05 433.54Z" />
				<path id="&lt;Path&gt;" class="shp11" d="" />
			</g>
			<g id="face counter">
				<g id="&lt;Group&gt;">
					<path id="&lt;Path&gt;" class="shp12" d="M942.79 642.93C943.75 642.63 944.71 643.23 945.55 643.62C946.41 644.07 947.23 644.57 948.04 645.1C949.63 646.18 951.17 647.33 952.68 648.52C955.69 650.89 958.53 653.46 961.36 656.03C966.93 661.26 972.29 666.71 977.38 672.39C982.56 678.01 987.37 683.94 992.14 689.9C996.84 695.92 1001.31 702.13 1005.65 708.44C1009.86 714.84 1013.92 721.35 1017.62 728.09C1021.23 734.88 1024.69 741.79 1027.34 749.08C1030.05 756.33 1032.14 763.95 1032.63 771.84C1032.81 775.77 1032.55 779.8 1031.36 783.6C1030.26 787.41 1027.98 790.86 1025.01 793.24C1027.35 790.22 1028.8 786.73 1029.22 783.12C1029.69 779.51 1029.47 775.86 1028.76 772.28C1028.11 768.69 1027.09 765.16 1025.83 761.7C1024.57 758.24 1023.21 754.81 1021.62 751.46C1018.43 744.78 1014.97 738.18 1011.09 731.8C1007.3 725.37 1003.29 719.05 999.06 712.86C994.95 706.6 990.58 700.49 986.16 694.42C981.8 688.29 977.19 682.35 972.65 676.35C968.03 670.41 963.38 664.47 958.55 658.69C956.16 655.77 953.7 652.92 951.18 650.11C949.93 648.71 948.63 647.34 947.29 646.03C946.62 645.36 945.94 644.72 945.21 644.13C944.48 643.61 943.74 642.86 942.79 642.93Z" />
				</g>
				<g id="&lt;Group&gt;">
					<path id="&lt;Path&gt;" class="shp12" d="M807.01 642.86C806.07 643.11 805.34 643.78 804.61 644.39C803.9 645.02 803.22 645.7 802.56 646.4C801.22 647.78 799.95 649.23 798.71 650.69C796.22 653.64 793.78 656.61 791.44 659.68C786.69 665.73 782.13 671.94 777.63 678.17C773.2 684.46 768.71 690.7 764.51 697.12C760.24 703.5 756.05 709.92 752.13 716.49C748.1 723 744.32 729.64 740.8 736.4C737.2 743.11 734.03 750.03 731.21 757.05C728.52 764.1 726.19 771.33 725.32 778.76C724.84 782.47 724.8 786.22 725.34 789.93C725.92 793.63 727.21 797.25 729.31 800.54C726.52 797.81 724.46 794.27 723.2 790.45C721.96 786.62 721.5 782.56 721.43 778.55C721.42 770.5 723.05 762.59 725.36 755.02C727.6 747.4 730.77 740.15 734.09 733.03C737.51 725.95 741.35 719.09 745.36 712.37C749.5 705.72 753.8 699.19 758.36 692.85C762.99 686.56 767.68 680.32 772.76 674.38C777.75 668.39 783.03 662.63 788.55 657.1C791.35 654.38 794.17 651.67 797.16 649.14C798.67 647.89 800.18 646.65 801.78 645.5C802.58 644.93 803.4 644.38 804.26 643.89C805.1 643.42 806.02 642.89 807.01 642.86Z" />
				</g>
				<g id="&lt;Group&gt;">
					<path id="&lt;Path&gt;" class="shp12" d="M713.3 258.93C726.05 252.87 739.48 248.19 753.19 244.62C766.92 241.08 780.98 238.88 795.11 237.64C823.43 235.23 852.07 237.85 879.75 244.16C893.6 247.36 907.13 251.78 920.37 256.88C933.63 261.91 946.5 267.97 958.96 274.7L968.23 279.91C971.35 281.59 974.29 283.58 977.32 285.4C980.32 287.29 983.39 289.05 986.31 291.04L995.1 297L999.46 300.01L1003.71 303.19L1012.19 309.55C1017.79 313.87 1023.18 318.45 1028.63 322.92L1020.1 316.65C1017.24 314.58 1014.49 312.37 1011.57 310.4L1002.85 304.42L998.49 301.43L994.02 298.61L985.12 292.93C982.16 291.03 979.06 289.35 976.04 287.55C972.97 285.82 970.01 283.91 966.87 282.33L957.54 277.4C954.46 275.7 951.23 274.3 948.08 272.77C944.89 271.29 941.8 269.61 938.55 268.28L928.88 264.09C925.66 262.69 922.34 261.54 919.08 260.25C905.94 255.31 892.53 251.07 878.84 248.02C865.2 244.78 851.34 242.47 837.37 241.23C823.4 239.96 809.34 239.9 795.33 240.67C781.33 241.53 767.35 243.37 753.64 246.5C739.88 249.42 726.41 253.69 713.3 258.93Z" />
				</g>
				<g id="&lt;Group&gt;">
					<path id="&lt;Path&gt;" class="shp12" d="M1028.63 351.43C1015.9 346.34 1003.21 341.16 990.41 336.28C977.66 331.28 964.86 326.41 951.98 321.76C926.24 312.46 900.34 303.57 874.02 296.14C847.78 288.49 821.12 282.16 794.07 278.45C780.56 276.6 766.92 275.5 753.29 276L748.18 276.17L743.09 276.61L740.54 276.82L738.01 277.18L732.95 277.92C726.26 279.23 719.64 281.01 713.3 283.64C719.46 280.62 726.03 278.47 732.74 276.89L737.81 275.92L740.35 275.45L742.92 275.12L748.04 274.46L753.2 274.06C766.96 273.16 780.77 273.92 794.45 275.42C808.14 276.88 821.69 279.42 835.13 282.29C848.56 285.2 861.89 288.59 875.11 292.33C901.46 300.12 927.47 308.98 953.05 318.92C965.82 323.93 978.53 329.11 991.14 334.49C1003.71 339.98 1016.26 345.52 1028.63 351.43Z" />
				</g>
				<g id="&lt;Group&gt;">
					<path id="&lt;Path&gt;" class="shp12" d="M1013.22 387.07C1013.86 386.38 1014.28 385.49 1014.33 384.57C1014.38 383.65 1014.09 382.74 1013.67 381.93C1012.81 380.29 1011.47 378.95 1010.1 377.71C1007.31 375.26 1004.15 373.23 1000.93 371.36C994.46 367.62 987.64 364.51 980.74 361.61C966.96 355.79 952.8 350.88 938.49 346.48C909.87 337.7 880.72 330.56 851.22 325.55C821.77 320.31 791.89 317.07 762.01 317.41C747.09 317.6 732.13 318.82 717.54 321.98C702.99 325.04 688.61 330.23 676.61 339.35C682.3 334.44 688.83 330.52 695.7 327.42C702.58 324.3 709.78 321.93 717.1 320.08C731.78 316.5 746.87 314.93 761.94 314.36C777.02 313.75 792.1 314.52 807.11 315.79C822.12 317.11 837.05 319.11 851.9 321.64C866.72 324.29 881.44 327.46 896.04 331.1C910.63 334.77 925.15 338.77 939.42 343.59C953.68 348.36 967.81 353.61 981.52 359.85C988.34 363.03 995.08 366.44 1001.47 370.46C1004.65 372.49 1007.77 374.65 1010.51 377.28C1011.84 378.62 1013.14 380.05 1013.94 381.8C1014.33 382.66 1014.58 383.63 1014.47 384.58C1014.38 385.54 1013.89 386.42 1013.22 387.07Z" />
				</g>
				<g id="&lt;Group&gt;">
					<path id="&lt;Path&gt;" class="shp13" d="M869.47 445.56C914.16 489.24 938.28 523.77 941.84 549.16C947.17 587.25 937.27 647.43 912.89 627.62C888.52 607.82 829.75 605.45 842.05 531.23" />
					<path id="&lt;Path&gt;" class="shp12" d="M869.75 445.28C892.77 464.85 914.34 486.34 931.78 511.84C936.11 518.25 940.21 524.91 943.4 532.31C945.05 535.97 946.42 539.86 947.52 543.95C948.53 548.32 948.97 552.08 949.42 556.01C950.2 563.83 950.31 571.64 950.02 579.44C949.7 587.24 948.98 595.04 947.5 602.86C946.73 606.76 945.8 610.66 944.53 614.57C943.26 618.47 941.75 622.39 939.49 626.31C938.4 628.26 936.99 630.22 935.29 632.12C933.46 633.97 931.37 635.88 928.36 637.08C925.5 638.31 921.9 638.74 918.93 638.05C917.33 637.85 916.12 637.25 914.76 636.75C913.55 636.17 912.42 635.51 911.33 634.84L908.52 632.72L906.62 631.21C905.28 630.24 903.89 629.28 902.41 628.37C899.46 626.55 896.27 624.84 893 623.15C886.41 619.81 879.52 616.43 872.82 612.38C866.14 608.34 859.5 603.68 853.97 597.72C851.17 594.78 848.75 591.46 846.58 588.03C844.52 584.53 842.71 580.88 841.45 577.06C838.89 569.43 838.15 561.48 838.32 553.78C838.37 551.85 838.42 549.92 838.65 548.02C838.84 546.11 838.95 544.2 839.31 542.32C839.9 538.54 840.79 534.84 841.66 531.16L842.44 531.29C841.28 538.7 840.62 546.2 840.94 553.67C841.28 561.12 842.5 568.61 845.34 575.51C846.71 578.98 848.5 582.26 850.54 585.37C852.68 588.41 855.01 591.33 857.71 593.91C863.05 599.12 869.31 603.32 875.85 606.93C882.4 610.56 889.26 613.64 896.04 616.92C899.42 618.56 902.79 620.26 906.07 622.17C907.71 623.12 909.3 624.16 910.87 625.24C912.4 626.4 913.91 627.53 915.38 628.57C918.37 630.54 922.17 631.55 925.4 630.06C928.65 628.67 930.99 625.61 932.8 622.46C936.37 616 938.31 608.67 939.72 601.36C942.47 586.67 943.12 571.56 941.97 556.64C941.64 552.92 941.25 549.18 940.48 545.57C939.59 541.97 938.44 538.42 936.99 534.98C934.15 528.07 930.43 521.53 926.48 515.17C918.5 502.47 909.3 490.55 899.64 479.05C889.96 467.58 879.81 456.46 869.19 445.85L869.75 445.28Z" />
				</g>
			</g>
			<g id="EYES EYEBROWS">
				<g id="&lt;Group&gt;">
					<path id="&lt;Path&gt;" class="shp14" d="M699.33 458.04C746 470.94 778.17 474.38 795.84 468.34C811.86 469.58 822.98 473.61 829.22 480.44" />
					<path id="&lt;Path&gt;" class="shp14" d="M699.33 458.04C707.72 458.22 715.91 458.85 724.02 459.6C732.14 460.33 740.17 461.22 748.14 462.05C756.11 462.89 764.04 463.65 771.84 464.1C779.57 464.52 787.46 464.68 794.09 463.23L795.76 462.86L796.26 462.95C797.84 463.25 799.41 463.51 800.98 463.83C802.54 464.24 804.1 464.58 805.64 465.04C808.71 465.99 811.73 467.08 814.62 468.5C817.5 469.92 820.27 471.56 822.78 473.54C825.25 475.54 827.61 477.74 829.22 480.44C827.88 479.66 826.52 479.02 825.12 478.48C823.75 477.89 822.34 477.42 820.94 476.99C818.13 476.13 815.29 475.5 812.47 475.01C809.64 474.51 806.79 474.21 803.95 474C801.11 473.78 798.26 473.75 795.42 473.72L797.59 473.45C793.1 475.28 788.64 476.15 784.27 476.66C779.89 477.2 775.59 477.24 771.32 477.16C762.8 476.97 754.49 475.83 746.31 474.26C738.14 472.68 730.12 470.53 722.26 467.88C714.41 465.22 706.69 462.11 699.33 458.04Z" />
				</g>
				<g id="&lt;Group&gt;">
					<path id="&lt;Path&gt;" class="shp14" d="M782.63 512.68C771.74 527.1 757.82 530.88 740.88 523.99C707.88 510.59 708.8 472.34 724.41 464.67C734.82 459.55 759.98 463.05 799.87 475.15L782.63 512.68Z" />
					<path id="&lt;Compound Path&gt;" fill-rule="evenodd" class="shp14" d="M782.63 512.68C777.39 519.02 770.23 523.91 762.19 525.94C758.15 526.92 753.97 527.07 749.85 526.6C747.84 526.14 745.75 525.95 743.81 525.18L740.87 524.19L738.02 522.95C730.52 519.46 723.89 513.91 719.53 506.8C715.13 499.75 713.01 491.27 713.69 482.95C714.07 478.81 715.14 474.66 717.27 471.02C719.33 467.4 722.72 464.21 726.94 463.27C731.05 462.22 735.25 462.29 739.38 462.43C743.52 462.63 747.63 463.11 751.72 463.71C768.07 466.22 784.1 470.3 799.92 474.98L800.11 475.04L800.03 475.22L782.63 512.68ZM782.63 512.68L799.64 475.26C783.85 470.74 767.85 466.82 751.62 464.46C747.54 463.89 743.44 463.45 739.34 463.29C735.26 463.17 731.09 463.16 727.19 464.2C723.27 465.14 720.08 468.01 718.06 471.48C715.99 474.96 714.91 478.98 714.5 483.03C713.77 491.15 715.78 499.51 720.06 506.48C724.29 513.51 730.78 519.06 738.2 522.58L741.01 523.84L743.92 524.83C745.83 525.62 747.9 525.82 749.9 526.3C753.97 526.79 758.12 526.68 762.14 525.75C770.15 523.79 777.34 518.98 782.63 512.68ZM799.64 475.26C799.7 475.28 799.76 475.29 799.82 475.31L799.72 475.08L799.64 475.26Z" />
				</g>
				<g id="&lt;Group&gt;">
					<path id="&lt;Path&gt;" class="shp14" d="M1060.28 461.02C1011.85 474.33 978.49 478.05 960.19 472.15C943.59 473.53 932.04 477.67 925.55 484.55" />
					<path id="&lt;Path&gt;" class="shp14" d="M1060.28 461.02C1052.62 465.19 1044.62 468.4 1036.49 471.15C1028.34 473.88 1020.04 476.11 1011.57 477.77C1003.11 479.41 994.5 480.62 985.69 480.88C981.28 481 976.83 481 972.3 480.49C967.78 480.01 963.17 479.18 958.51 477.39L960.65 477.63C957.7 477.68 954.74 477.73 951.79 477.97C948.85 478.2 945.89 478.51 942.95 479.03C940.02 479.54 937.08 480.18 934.16 481.05C932.7 481.49 931.24 481.96 929.82 482.56C928.36 483.11 926.95 483.76 925.55 484.55C927.27 481.79 929.74 479.56 932.32 477.52C934.94 475.51 937.81 473.84 940.79 472.4C943.77 470.94 946.9 469.83 950.07 468.85C951.65 468.38 953.26 468.02 954.87 467.6C956.48 467.26 958.11 466.98 959.74 466.67L960.22 466.58L961.88 466.92C968.83 468.33 977.03 468.08 985.07 467.59C993.17 467.06 1001.4 466.24 1009.67 465.33C1017.94 464.44 1026.27 463.49 1034.68 462.71C1043.1 461.9 1051.58 461.23 1060.28 461.02Z" />
				</g>
				<g id="&lt;Group&gt;">
					<path id="&lt;Path&gt;" class="shp14" d="M973.78 516.42C985.03 530.76 999.45 534.42 1017.03 527.38C1051.27 513.69 1050.42 475.42 1034.25 467.87C1023.47 462.84 997.39 466.55 955.99 479L973.78 516.42Z" />
					<path id="&lt;Compound Path&gt;" fill-rule="evenodd" class="shp14" d="M973.78 516.42L955.84 479.08L955.75 478.89L955.94 478.84C972.19 474.07 988.65 469.89 1005.4 467.22C1009.59 466.58 1013.81 466.06 1018.05 465.78C1022.29 465.53 1026.58 465.5 1030.83 466.28C1032.95 466.71 1035.06 467.52 1036.82 468.82C1038.59 470.1 1040.07 471.75 1041.26 473.55C1043.63 477.19 1044.84 481.45 1045.28 485.69C1046.09 494.24 1043.79 502.96 1039.14 510.1C1034.53 517.32 1027.61 522.85 1019.89 526.37L1016.96 527.61L1013.93 528.61L1012.42 529.11C1011.91 529.26 1011.38 529.33 1010.86 529.45L1007.73 530.07C1003.51 530.57 999.22 530.47 995.06 529.55C986.78 527.61 979.28 522.83 973.78 516.42ZM973.78 516.42C979.33 522.79 986.86 527.49 995.11 529.35C999.25 530.22 1003.51 530.28 1007.69 529.76L1010.78 529.12C1011.3 529 1011.82 528.92 1012.32 528.77L1013.82 528.26L1016.81 527.25L1019.71 525.99C1027.35 522.44 1034.14 516.91 1038.61 509.76C1043.13 502.7 1045.31 494.1 1044.44 485.78C1043.99 481.64 1042.77 477.52 1040.47 474.07C1038.21 470.6 1034.72 468 1030.64 467.23C1026.55 466.45 1022.3 466.44 1018.1 466.65C1013.9 466.89 1009.7 467.37 1005.52 467.97C988.86 470.48 972.44 474.5 956.24 479.11L973.78 516.42ZM956.24 479.11L956.15 478.93L956.04 479.17C956.11 479.15 956.17 479.13 956.24 479.11Z" />
				</g>
				<g id="&lt;Group&gt;">
					<path id="&lt;Path&gt;" class="shp14" d="M689.3 403.36C689.36 401.42 689.94 399.62 690.7 398.17C691.46 396.69 692.4 395.6 693.34 394.61C695.23 392.71 697.2 391.43 699.15 390.35C703.05 388.25 706.94 386.94 710.83 385.91C718.6 383.9 726.36 383.04 734.08 382.71C749.52 382.12 764.8 383.81 779.66 386.97C809.4 393.36 837.43 406 862.04 423.09C849.19 415.37 835.68 408.84 821.68 403.72C807.7 398.6 793.25 394.86 778.62 392.71C764.01 390.56 749.17 389.93 734.7 391.43C727.49 392.19 720.34 393.5 713.72 395.69C710.43 396.78 707.26 398.14 704.66 399.78C703.38 400.59 702.27 401.51 701.57 402.32C700.85 403.16 700.88 403.7 700.95 403.51L689.3 403.36Z" />
				</g>
				<g id="&lt;Group&gt;">
					<path id="&lt;Path&gt;" class="shp14" d="M1037.05 363.93C1036.86 363.67 1036.97 363.46 1036.62 363.01C1036.5 362.81 1036.38 362.6 1036.27 362.39L1035.71 361.69C1035.39 361.22 1034.9 360.74 1034.42 360.25C1033.99 359.75 1033.42 359.29 1032.86 358.81C1030.63 356.92 1027.99 355.13 1025.13 353.62C1019.43 350.55 1013.03 348.31 1006.46 346.76C993.25 343.72 979.15 343.6 965.45 346.21C958.6 347.5 951.83 349.45 945.21 351.9C938.61 354.43 932.23 357.55 926 361.01C913.67 368.18 902.22 377.06 891.81 387.07C901.26 376.15 911.93 366.16 923.87 357.67C929.91 353.54 936.2 349.71 942.84 346.44C949.5 343.25 956.44 340.54 963.63 338.48C977.99 334.36 993.35 332.99 1008.57 335.04C1016.18 336.12 1023.75 337.97 1031.1 341.08C1034.78 342.62 1038.39 344.55 1041.91 346.99C1042.79 347.62 1043.67 348.23 1044.53 348.99C1045.39 349.71 1046.25 350.43 1047.09 351.35L1048.34 352.66L1049.56 354.24C1050.37 355.2 1051.11 356.71 1051.78 358.03L1037.05 363.93Z" />
				</g>
			</g>
		</g>
		<g id="Layer 12">
			<g id="Layer 12">
				<path id="&lt;Path&gt;" class="shp15" d="M799.87 1477.65L572.42 1126.58L585.41 1012.98L653.22 989.46L815.42 1050.02L918.22 1067.16L979.21 1034.37L1044.42 1083.06L1105.62 1209.51L1107.9 1431.94L1030.99 1498.98L845.93 1506.6L799.87 1477.65Z" />
			</g>
			<path id="&lt;Path&gt;" class="shp16" d="M842.81 1519.64C832.15 1429.75 826.81 1321.59 826.81 1195.13C831.38 1114.39 836.72 1071.73 842.81 1067.16L915.94 1087.73C902.23 1119.72 909.08 1164.28 936.51 1221.41C963.93 1287.69 993.7 1355.56 1025.83 1425.03L1034.77 1519.64L842.81 1519.64Z" />
			<path id="&lt;Path&gt;" class="shp17" d="M810.04 1018.14C860.76 1044.98 907.21 1044.98 949.4 1018.14C962.14 1050.82 968.5 1067.16 968.5 1067.16C953.27 1100.68 935.74 1120.48 915.94 1126.58C895.37 1124.29 888.52 1101.44 829.1 1126.58C784.7 1079.85 751.4 1039.96 742.26 1018.14C740.73 1003.59 740.73 994.03 742.26 989.46L810.04 1018.14Z" />
		</g>
		<g id="suit">
			<path id="&lt;Path&gt;" class="shp18" d="M1283.87 1483.08C1283.87 1368.81 1354.71 1261.41 1153.61 1112.86C1048.49 1007.74 1032.49 996.31 1011.92 952.89C1011.92 1048.88 1066.77 1467.08 993.64 1519.64C1139.9 1513.55 1240.67 1513.55 1295.97 1519.64L1283.87 1483.08Z" />
			<path id="&lt;Path&gt;" class="shp19" d="M879.37 1519.64C772.17 1302.73 712.15 1159.24 699.33 1089.15C651.34 986.32 627.99 1010.03 621.14 923.19C609.71 946.04 534.3 1069.44 422.32 1135.72C310.34 1190.56 298.92 1213.42 285.2 1311.68C266.92 1392.43 260.83 1461.75 266.92 1519.64L879.37 1519.64Z" />
		</g>
		<g id="colar">
			<path id="&lt;Path&gt;" class="shp20" d="M613.04 882.05C624.94 908.14 652.46 931.16 695.61 951.11C760.32 981.04 823.62 1018.34 845.93 1029.85C825.85 1039.06 755.86 1086.94 713.46 1195.13C682.22 1167.51 650.98 1080.03 599.65 1015.57C595.19 972.6 599.65 928.09 613.04 882.05Z" />
			<path id="&lt;Path&gt;" class="shp20" d="M1039.34 1174.57C970.61 1094.52 927.11 1047.64 908.82 1033.93C947.67 1008.79 991.57 980.32 1014.42 936.9C1025.85 1055.73 1069.05 1039.73 1039.34 1174.57Z" />
			<path id="&lt;Path&gt;" class="shp21" d="M845.93 1029.86C825.85 1039.07 755.87 1086.92 713.45 1195.15C682.23 1167.5 650.97 1080.01 599.67 1015.58C595.2 972.6 599.65 928.08 613.04 882.03C624.94 908.14 652.46 931.17 695.6 951.11C760.31 981.02 823.63 1018.32 845.93 1029.86Z" />
			<path id="&lt;Path&gt;" class="shp22" d="M1039.34 1174.57C970.61 1094.52 927.11 1047.64 908.82 1033.93C947.67 1008.79 991.57 980.32 1014.42 936.9C1025.85 1055.73 1069.05 1039.73 1039.34 1174.57Z" />
		</g>
	</g>
	<g id="mun 3">
		<g id="&lt;Group&gt;">
			<path id="&lt;Path&gt;" class="shp23" d="M977.35 755.26L975.09 754.24C974.31 753.9 973.36 753.61 972.5 753.29C970.77 752.64 968.95 752.08 967.11 751.54C963.48 750.37 959.71 749.49 955.99 748.49C948.47 746.73 940.89 745.13 933.24 743.89C917.94 741.38 902.45 739.72 886.91 739.28C871.37 738.85 855.79 739.51 840.31 741.33C824.86 743.4 809.6 746.85 794.72 751.72C809.37 746.22 824.54 742.1 840.01 739.35C855.51 736.85 871.21 735.52 886.95 735.28C902.69 735.06 918.44 736.06 934.1 737.95C941.93 738.88 949.73 740.18 957.51 741.66C961.38 742.52 965.27 743.25 969.14 744.32C971.07 744.8 973.01 745.3 974.97 745.95C975.96 746.27 976.9 746.51 977.93 746.9L981.06 748.17C983.11 749 984.09 751.33 983.26 753.38C982.43 755.42 980.1 756.4 978.05 755.57C978.02 755.56 977.98 755.54 977.94 755.52L977.35 755.26Z" />
		</g>
		<g id="&lt;Group&gt;">
			<path id="&lt;Path&gt;" class="shp23" d="M924.83 765.25C926.32 767.06 927.69 769.24 928.4 771.89C929.16 774.5 928.88 777.6 927.78 780.02C926.69 782.47 925.06 784.35 923.34 785.84C921.61 787.34 919.77 788.53 917.9 789.54C910.36 793.5 902.37 795.31 894.37 796.26C886.37 797.12 878.22 797.06 870.38 795.13C866.49 794.14 862.62 792.65 859.46 790.09C856.24 787.6 854.26 783.62 854.34 779.67C854.61 783.63 856.84 787.21 860.06 789.29C863.24 791.44 867.01 792.55 870.79 793.18C878.4 794.38 886.23 793.77 893.76 792.31C901.25 790.79 908.72 788.33 914.84 784.39C917.81 782.44 920.5 779.89 921.28 777.42C921.66 776.21 921.65 775.15 921.2 774.01C920.78 772.88 919.96 771.68 918.84 770.55C917.28 768.98 917.29 766.44 918.86 764.88C920.43 763.33 922.97 763.34 924.53 764.91C924.62 764.99 924.7 765.08 924.77 765.18L924.83 765.25Z" />
		</g>
	</g>
</svg>